<svg width="48" height="48" viewBox="0 0 48 48" fill="none" xmlns="http://www.w3.org/2000/svg">
<path d="M0.5 0.5H43C45.4853 0.5 47.5 2.51472 47.5 5V47.5H0.5V0.5Z" stroke="black"/>
<rect x="18" y="36" width="25" height="6" rx="3" fill="black"/>
<circle cx="9" cy="39" r="3" fill="black"/>
<rect x="18" y="27" width="25" height="6" rx="3" fill="black"/>
<circle cx="9" cy="30" r="3" fill="black"/>
<rect x="18" y="17" width="25" height="6" rx="3" fill="black"/>
<circle cx="9" cy="20" r="3" fill="black"/>
<path d="M0 0H48V11H5C2.23858 11 0 8.76142 0 6V0Z" fill="black"/>
<path d="M0 0H48V11H5C2.23858 11 0 8.76142 0 6V0Z" fill="black"/>
<path d="M15.4814 2.2832C15.7549 2.30599 15.9941 2.31966 16.1992 2.32422C16.4089 2.32878 16.5866 2.33105 16.7324 2.33105C16.901 2.33105 17.0469 2.3265 17.1699 2.31738C17.2975 2.30371 17.4639 2.28548 17.6689 2.2627C17.8421 2.23991 18.0654 2.21029 18.3389 2.17383C18.6123 2.13281 18.945 2.0804 19.3369 2.0166C19.2868 2.09408 19.2435 2.17611 19.207 2.2627C19.1751 2.34473 19.1478 2.41992 19.125 2.48828C19.1022 2.57031 19.0817 2.65007 19.0635 2.72754C19.0498 2.81413 19.0339 2.92122 19.0156 3.04883C18.9974 3.1582 18.9746 3.2972 18.9473 3.46582C18.9245 3.62988 18.8949 3.82585 18.8584 4.05371C18.7217 3.69824 18.5827 3.4248 18.4414 3.2334C18.3047 3.04199 18.1771 2.90072 18.0586 2.80957C17.9219 2.70475 17.792 2.64551 17.6689 2.63184C17.4912 2.63184 17.3454 2.66602 17.2314 2.73438C17.1175 2.80273 17.0241 2.8916 16.9512 3.00098C16.8828 3.10579 16.8304 3.22201 16.7939 3.34961C16.7575 3.47266 16.7324 3.59342 16.7188 3.71191C16.7051 3.82585 16.696 3.92839 16.6914 4.01953C16.6868 4.10612 16.6823 4.16536 16.6777 4.19727C16.8372 4.18815 16.9717 4.17676 17.0811 4.16309C17.1904 4.14941 17.277 4.13574 17.3408 4.12207C17.4183 4.10384 17.4798 4.08561 17.5254 4.06738C17.5938 4.03092 17.6621 3.98763 17.7305 3.9375C17.7897 3.89193 17.8512 3.83724 17.915 3.77344C17.9834 3.70964 18.0426 3.63216 18.0928 3.54102C18.0654 3.70508 18.0404 3.8418 18.0176 3.95117C17.9993 4.06055 17.9834 4.14714 17.9697 4.21094C17.9515 4.28841 17.9401 4.34766 17.9355 4.38867C17.9264 4.42969 17.915 4.48665 17.9014 4.55957C17.8877 4.62337 17.8717 4.7054 17.8535 4.80566C17.8353 4.90592 17.8148 5.03125 17.792 5.18164C17.7373 5.08594 17.6803 5.00846 17.6211 4.94922C17.5618 4.88542 17.5072 4.83529 17.457 4.79883C17.3978 4.75781 17.3408 4.72591 17.2861 4.70312C17.2269 4.6849 17.1631 4.66667 17.0947 4.64844C17.0355 4.63477 16.9648 4.62109 16.8828 4.60742C16.8053 4.58919 16.721 4.57324 16.6299 4.55957C16.639 4.80566 16.6527 5.01758 16.6709 5.19531C16.6891 5.36849 16.7051 5.51432 16.7188 5.63281C16.737 5.76953 16.7552 5.88346 16.7734 5.97461C16.7962 6.06576 16.8327 6.16374 16.8828 6.26855C16.9238 6.3597 16.9808 6.46452 17.0537 6.58301C17.1312 6.69694 17.2292 6.81999 17.3477 6.95215C17.2565 6.92936 17.1608 6.91341 17.0605 6.9043C16.9603 6.89518 16.8714 6.88835 16.7939 6.88379C16.6982 6.87923 16.6071 6.87923 16.5205 6.88379C16.4294 6.88835 16.3291 6.89746 16.2197 6.91113C16.1286 6.92025 16.0238 6.93392 15.9053 6.95215C15.7868 6.97038 15.6615 6.99089 15.5293 7.01367C15.6068 6.9362 15.6706 6.85872 15.7207 6.78125C15.7708 6.70378 15.8073 6.63542 15.8301 6.57617C15.8574 6.50781 15.8757 6.44173 15.8848 6.37793C15.8893 6.32324 15.8916 6.20475 15.8916 6.02246C15.8916 5.83561 15.8893 5.61914 15.8848 5.37305C15.8802 5.1224 15.8734 4.85807 15.8643 4.58008C15.8551 4.30208 15.846 4.04232 15.8369 3.80078C15.8278 3.55469 15.8164 3.34505 15.8027 3.17188C15.7936 2.9987 15.7822 2.89388 15.7686 2.85742C15.7503 2.81185 15.7298 2.75944 15.707 2.7002C15.6706 2.60449 15.5954 2.46549 15.4814 2.2832ZM20.4717 3.9375C20.5902 3.9375 20.7132 3.96029 20.8408 4.00586C20.9684 4.04688 21.0915 4.10156 21.21 4.16992C21.3285 4.23372 21.4355 4.30436 21.5312 4.38184C21.6315 4.45475 21.7135 4.52539 21.7773 4.59375C21.8913 4.7168 21.9688 4.88314 22.0098 5.09277C22.0553 5.29785 22.0645 5.50977 22.0371 5.72852C22.0098 5.94271 21.946 6.14551 21.8457 6.33691C21.7454 6.52832 21.6064 6.6696 21.4287 6.76074C21.3011 6.82454 21.1758 6.87467 21.0527 6.91113C20.9297 6.94759 20.8112 6.97493 20.6973 6.99316C20.5833 7.01139 20.4762 7.02051 20.376 7.02051C20.2757 7.02051 20.1891 7.01823 20.1162 7.01367C19.9795 7.00456 19.8359 6.95671 19.6855 6.87012C19.5397 6.78353 19.4007 6.67643 19.2686 6.54883C19.141 6.42122 19.0316 6.28223 18.9404 6.13184C18.8493 5.97689 18.7946 5.83105 18.7764 5.69434C18.749 5.50749 18.7445 5.31152 18.7627 5.10645C18.7809 4.90137 18.847 4.71224 18.9609 4.53906C19.0794 4.36589 19.2572 4.22233 19.4941 4.1084C19.7357 3.99447 20.0615 3.9375 20.4717 3.9375ZM20.2461 6.58984C20.2962 6.59896 20.3646 6.58757 20.4512 6.55566C20.5378 6.51921 20.6221 6.46224 20.7041 6.38477C20.7907 6.30729 20.8659 6.20931 20.9297 6.09082C20.998 5.96777 21.0391 5.81966 21.0527 5.64648C21.0664 5.47786 21.0664 5.32292 21.0527 5.18164C21.0436 5.04036 21.0231 4.91732 20.9912 4.8125C20.9593 4.70312 20.9229 4.61426 20.8818 4.5459C20.8408 4.47754 20.7975 4.42969 20.752 4.40234C20.6745 4.36133 20.5811 4.32943 20.4717 4.30664C20.3623 4.2793 20.2689 4.28385 20.1914 4.32031C20.1549 4.33854 20.1094 4.37728 20.0547 4.43652C20 4.49577 19.9453 4.57096 19.8906 4.66211C19.8359 4.7487 19.7858 4.84896 19.7402 4.96289C19.6992 5.07682 19.6696 5.19531 19.6514 5.31836C19.6331 5.44141 19.6286 5.57357 19.6377 5.71484C19.6514 5.85612 19.681 5.99056 19.7266 6.11816C19.7721 6.24121 19.8359 6.34831 19.918 6.43945C20.0046 6.52604 20.1139 6.57617 20.2461 6.58984ZM22.2969 3.72559C22.3835 3.73014 22.4609 3.73242 22.5293 3.73242C22.6022 3.72786 22.6637 3.72331 22.7139 3.71875C22.7731 3.71419 22.8255 3.70964 22.8711 3.70508C22.9395 3.69596 23.0101 3.68457 23.083 3.6709C23.1468 3.66178 23.2129 3.65039 23.2812 3.63672C23.3542 3.61849 23.4248 3.59798 23.4932 3.5752C23.4658 3.64355 23.443 3.7028 23.4248 3.75293C23.4066 3.80306 23.3929 3.84635 23.3838 3.88281C23.3701 3.92383 23.3633 3.95801 23.3633 3.98535C23.3587 4.01725 23.3564 4.05599 23.3564 4.10156C23.3519 4.17904 23.3519 4.30436 23.3564 4.47754C23.5934 4.27246 23.7917 4.11296 23.9512 3.99902C24.1152 3.88509 24.2451 3.79622 24.3408 3.73242C24.4548 3.65951 24.5436 3.61165 24.6074 3.58887C24.776 3.56152 24.9242 3.60026 25.0518 3.70508C25.1064 3.75065 25.1589 3.81217 25.209 3.88965C25.2591 3.96257 25.3024 4.06055 25.3389 4.18359C25.3753 4.30664 25.4027 4.45475 25.4209 4.62793C25.4391 4.79655 25.4414 4.99935 25.4277 5.23633C25.332 5.24544 25.2454 5.25456 25.168 5.26367C25.0951 5.27279 25.0335 5.27962 24.9834 5.28418C24.9242 5.29329 24.8695 5.29785 24.8193 5.29785L24.6348 5.31836C24.571 5.32747 24.4912 5.33659 24.3955 5.3457C24.3044 5.35026 24.1927 5.35938 24.0605 5.37305C24.252 5.2181 24.375 5.08366 24.4297 4.96973C24.4889 4.85124 24.514 4.75326 24.5049 4.67578C24.4958 4.58919 24.4548 4.514 24.3818 4.4502C24.2952 4.40007 24.2018 4.38184 24.1016 4.39551C24.015 4.40462 23.9147 4.44336 23.8008 4.51172C23.6868 4.58008 23.5661 4.70768 23.4385 4.89453C23.4476 5.1862 23.4567 5.42773 23.4658 5.61914C23.4795 5.81055 23.4909 5.96549 23.5 6.08398C23.5137 6.2207 23.5251 6.3278 23.5342 6.40527C23.5479 6.47363 23.5752 6.54655 23.6162 6.62402C23.6481 6.68783 23.6937 6.75846 23.7529 6.83594C23.8122 6.91341 23.8896 6.99089 23.9854 7.06836C23.7848 7.05924 23.6208 7.05924 23.4932 7.06836C23.4157 7.07292 23.3473 7.07747 23.2881 7.08203C23.2243 7.09115 23.1559 7.10026 23.083 7.10938C23.0192 7.11849 22.944 7.1276 22.8574 7.13672C22.7754 7.15039 22.6842 7.16406 22.584 7.17773C22.6204 7.1276 22.6501 7.06836 22.6729 7C22.6956 6.9362 22.7139 6.87467 22.7275 6.81543C22.7458 6.74707 22.7594 6.67643 22.7686 6.60352C22.7731 6.53971 22.7754 6.44401 22.7754 6.31641C22.7799 6.1888 22.7777 6.04525 22.7686 5.88574C22.764 5.72168 22.7572 5.55306 22.748 5.37988C22.7389 5.20215 22.7275 5.03581 22.7139 4.88086C22.7002 4.72591 22.6842 4.59147 22.666 4.47754C22.6523 4.35905 22.6364 4.27702 22.6182 4.23145C22.5954 4.17676 22.568 4.12207 22.5361 4.06738C22.5088 4.01725 22.4746 3.96484 22.4336 3.91016C22.3926 3.85091 22.347 3.78939 22.2969 3.72559ZM25.6807 3.75977C25.7855 3.75065 25.8743 3.74154 25.9473 3.73242C26.0247 3.72331 26.0885 3.71419 26.1387 3.70508C26.1979 3.69596 26.248 3.68685 26.2891 3.67773C26.3301 3.67318 26.3757 3.66406 26.4258 3.65039C26.4714 3.64128 26.5215 3.62988 26.5762 3.61621C26.6354 3.59798 26.6992 3.57747 26.7676 3.55469L26.7266 4.42285C26.8268 4.26335 26.943 4.14258 27.0752 4.06055C27.2074 3.97396 27.3327 3.91016 27.4512 3.86914C27.5924 3.81901 27.7337 3.78939 27.875 3.78027C28.0208 3.78483 28.1553 3.80762 28.2783 3.84863C28.3831 3.88509 28.488 3.94206 28.5928 4.01953C28.7021 4.09701 28.7865 4.21094 28.8457 4.36133C29.0007 4.20182 29.1533 4.07878 29.3037 3.99219C29.4587 3.90104 29.5954 3.83268 29.7139 3.78711C29.8551 3.73698 29.9873 3.70736 30.1104 3.69824C30.2744 3.69368 30.4248 3.72103 30.5615 3.78027C30.7028 3.83952 30.8258 3.91471 30.9307 4.00586C31.0355 4.09245 31.1198 4.18587 31.1836 4.28613C31.2474 4.38184 31.2839 4.46615 31.293 4.53906C31.3066 4.63932 31.2998 4.76921 31.2725 4.92871C31.2451 5.08366 31.2132 5.24316 31.1768 5.40723C31.1403 5.56673 31.1061 5.71484 31.0742 5.85156C31.0469 5.98372 31.0355 6.07715 31.04 6.13184C31.0537 6.17741 31.0856 6.2321 31.1357 6.2959C31.1813 6.35059 31.2474 6.41895 31.334 6.50098C31.4251 6.57845 31.555 6.6696 31.7236 6.77441C31.5778 6.76986 31.4479 6.7653 31.334 6.76074C31.2246 6.75618 31.1312 6.74935 31.0537 6.74023C30.9626 6.73112 30.8828 6.72428 30.8145 6.71973C30.7598 6.71973 30.6937 6.71517 30.6162 6.70605C30.5524 6.7015 30.4681 6.69466 30.3633 6.68555C30.263 6.67643 30.1468 6.66732 30.0146 6.6582C30.0648 6.64453 30.1058 6.61947 30.1377 6.58301C30.1696 6.54199 30.1969 6.50326 30.2197 6.4668C30.2425 6.42122 30.2607 6.37109 30.2744 6.31641C30.2835 6.27083 30.2926 6.19792 30.3018 6.09766C30.3109 5.9974 30.3177 5.88346 30.3223 5.75586C30.3314 5.62826 30.3359 5.49382 30.3359 5.35254C30.3405 5.21126 30.3405 5.07682 30.3359 4.94922C30.3314 4.82161 30.3223 4.7054 30.3086 4.60059C30.2949 4.49577 30.2767 4.41602 30.2539 4.36133C30.2357 4.32031 30.2038 4.28841 30.1582 4.26562C30.1126 4.23828 30.0602 4.22233 30.001 4.21777C29.9417 4.20866 29.8825 4.21094 29.8232 4.22461C29.764 4.23372 29.7116 4.25195 29.666 4.2793C29.625 4.3112 29.5703 4.35449 29.502 4.40918C29.4427 4.45931 29.3652 4.52767 29.2695 4.61426C29.1738 4.70085 29.0531 4.81022 28.9072 4.94238C28.8936 5.22949 28.8822 5.46191 28.873 5.63965C28.8685 5.81283 28.8639 5.94499 28.8594 6.03613C28.8548 6.14551 28.8525 6.2207 28.8525 6.26172C28.848 6.29818 28.8503 6.33236 28.8594 6.36426C28.8685 6.43262 28.8958 6.49642 28.9414 6.55566C28.8867 6.54199 28.8275 6.53288 28.7637 6.52832C28.7044 6.52376 28.6497 6.51921 28.5996 6.51465C28.5404 6.51009 28.4811 6.50781 28.4219 6.50781C28.3717 6.50781 28.3171 6.51009 28.2578 6.51465C28.2077 6.51921 28.1462 6.52604 28.0732 6.53516C28.0003 6.53971 27.9206 6.54655 27.834 6.55566C27.8704 6.53288 27.9001 6.50553 27.9229 6.47363C27.9456 6.44173 27.9639 6.41211 27.9775 6.38477C27.9958 6.35286 28.0094 6.32324 28.0186 6.2959C28.0231 6.26855 28.0322 6.20247 28.0459 6.09766C28.0596 5.98828 28.0687 5.86068 28.0732 5.71484C28.0778 5.56901 28.0778 5.41634 28.0732 5.25684C28.0687 5.09277 28.0527 4.94466 28.0254 4.8125C27.998 4.67578 27.9548 4.56413 27.8955 4.47754C27.8408 4.39095 27.7679 4.35221 27.6768 4.36133C27.5674 4.37044 27.4557 4.39779 27.3418 4.44336C27.2461 4.47982 27.1436 4.53451 27.0342 4.60742C26.9248 4.68034 26.8223 4.77832 26.7266 4.90137C26.7083 5.24316 26.6969 5.51432 26.6924 5.71484C26.6924 5.91536 26.6947 6.06803 26.6992 6.17285C26.7038 6.2959 26.7083 6.38021 26.7129 6.42578C26.7174 6.45768 26.7288 6.48958 26.7471 6.52148C26.7607 6.54883 26.7767 6.58073 26.7949 6.61719C26.8177 6.65365 26.8428 6.68783 26.8701 6.71973L25.7832 6.66504C25.8197 6.64681 25.8516 6.62402 25.8789 6.59668C25.9062 6.56478 25.929 6.53288 25.9473 6.50098C25.9655 6.46452 25.9837 6.42806 26.002 6.3916C26.0156 6.3597 26.027 6.28451 26.0361 6.16602C26.0498 6.04753 26.0612 5.90853 26.0703 5.74902C26.0794 5.58496 26.0863 5.41406 26.0908 5.23633C26.0999 5.05404 26.1045 4.88542 26.1045 4.73047C26.109 4.57096 26.1113 4.43652 26.1113 4.32715C26.1113 4.21322 26.109 4.14486 26.1045 4.12207C26.0908 4.0765 26.0658 4.02865 26.0293 3.97852C25.9974 3.94206 25.9541 3.90332 25.8994 3.8623C25.8447 3.81673 25.7718 3.78255 25.6807 3.75977Z" fill="white"/>
</svg>
