<svg width="48" height="48" viewBox="0 0 48 48" fill="none" xmlns="http://www.w3.org/2000/svg">
<rect width="48" height="48" rx="10" fill="black"/>
<path d="M14.3809 10C14.3809 9.44772 14.8286 9 15.3809 9H32.3809C33.4854 9 34.3809 9.89543 34.3809 11V15H14.3809V10Z" fill="white"/>
<path d="M14.3809 15H16.3809V35.5L14.3809 36V15Z" fill="white"/>
<path d="M32.3809 10H33.3809C33.9331 10 34.3809 10.4477 34.3809 11V29H32.3809V10Z" fill="white"/>
<ellipse cx="12.8809" cy="35.4998" rx="3.5" ry="2.5" transform="rotate(-10 12.8809 35.4998)" fill="white"/>
<path d="M34.3932 28.9306C34.633 30.2903 33.2841 31.6647 31.3805 32.0004C29.4769 32.336 27.7393 31.5058 27.4996 30.1461C27.2598 28.7864 28.6086 27.412 30.5123 27.0763C32.4159 26.7407 34.1534 27.5708 34.3932 28.9306Z" fill="white"/>
</svg>
